<mxfile host="app.diagrams.net" modified="2024-06-07T20:32:03.762Z" agent="Mozilla/5.0 (Windows NT 10.0; Win64; x64) AppleWebKit/537.36 (KHTML, like Gecko) Chrome/125.0.0.0 Safari/537.36" etag="KZ-S0jppjguqJxckA4tg" version="24.5.2" type="google">
  <diagram name="Page-1" id="E5N6wm-_VSQKXc6t6xqT">
    <mxGraphModel grid="1" page="1" gridSize="10" guides="1" tooltips="1" connect="1" arrows="1" fold="1" pageScale="1" pageWidth="827" pageHeight="1169" math="0" shadow="0">
      <root>
        <mxCell id="0" />
        <mxCell id="1" parent="0" />
        <mxCell id="Jt3Iy6oTeBnZVaDVuLoI-8" style="edgeStyle=orthogonalEdgeStyle;rounded=0;orthogonalLoop=1;jettySize=auto;html=1;entryX=0.5;entryY=0;entryDx=0;entryDy=0;" edge="1" parent="1" source="Jt3Iy6oTeBnZVaDVuLoI-1" target="Jt3Iy6oTeBnZVaDVuLoI-7">
          <mxGeometry relative="1" as="geometry">
            <Array as="points">
              <mxPoint x="414" y="140" />
              <mxPoint x="134" y="140" />
            </Array>
          </mxGeometry>
        </mxCell>
        <mxCell id="Jt3Iy6oTeBnZVaDVuLoI-9" style="edgeStyle=orthogonalEdgeStyle;rounded=0;orthogonalLoop=1;jettySize=auto;html=1;entryX=0.5;entryY=0;entryDx=0;entryDy=0;" edge="1" parent="1" source="Jt3Iy6oTeBnZVaDVuLoI-1" target="Jt3Iy6oTeBnZVaDVuLoI-6">
          <mxGeometry relative="1" as="geometry">
            <Array as="points">
              <mxPoint x="414" y="140" />
              <mxPoint x="694" y="140" />
            </Array>
          </mxGeometry>
        </mxCell>
        <mxCell id="Jt3Iy6oTeBnZVaDVuLoI-1" value="SupaZippa" style="rounded=0;whiteSpace=wrap;html=1;" vertex="1" parent="1">
          <mxGeometry x="354" y="50" width="120" height="60" as="geometry" />
        </mxCell>
        <mxCell id="Jt3Iy6oTeBnZVaDVuLoI-122" style="edgeStyle=orthogonalEdgeStyle;rounded=0;orthogonalLoop=1;jettySize=auto;html=1;entryX=0.5;entryY=0;entryDx=0;entryDy=0;" edge="1" parent="1" source="Jt3Iy6oTeBnZVaDVuLoI-2" target="Jt3Iy6oTeBnZVaDVuLoI-113">
          <mxGeometry relative="1" as="geometry">
            <Array as="points">
              <mxPoint x="134" y="420" />
              <mxPoint x="-16" y="420" />
            </Array>
          </mxGeometry>
        </mxCell>
        <mxCell id="Jt3Iy6oTeBnZVaDVuLoI-123" style="edgeStyle=orthogonalEdgeStyle;rounded=0;orthogonalLoop=1;jettySize=auto;html=1;entryX=0.5;entryY=0;entryDx=0;entryDy=0;" edge="1" parent="1" source="Jt3Iy6oTeBnZVaDVuLoI-2" target="Jt3Iy6oTeBnZVaDVuLoI-119">
          <mxGeometry relative="1" as="geometry">
            <Array as="points">
              <mxPoint x="134" y="420" />
              <mxPoint x="284" y="420" />
            </Array>
          </mxGeometry>
        </mxCell>
        <mxCell id="Jt3Iy6oTeBnZVaDVuLoI-124" style="edgeStyle=orthogonalEdgeStyle;rounded=0;orthogonalLoop=1;jettySize=auto;html=1;entryX=0.5;entryY=0;entryDx=0;entryDy=0;" edge="1" parent="1" source="Jt3Iy6oTeBnZVaDVuLoI-2" target="Jt3Iy6oTeBnZVaDVuLoI-115">
          <mxGeometry relative="1" as="geometry" />
        </mxCell>
        <mxCell id="Jt3Iy6oTeBnZVaDVuLoI-2" value="Text compression" style="rounded=0;whiteSpace=wrap;html=1;" vertex="1" parent="1">
          <mxGeometry x="74" y="330" width="120" height="60" as="geometry" />
        </mxCell>
        <mxCell id="Jt3Iy6oTeBnZVaDVuLoI-126" style="edgeStyle=orthogonalEdgeStyle;rounded=0;orthogonalLoop=1;jettySize=auto;html=1;entryX=0.5;entryY=0;entryDx=0;entryDy=0;" edge="1" parent="1" source="Jt3Iy6oTeBnZVaDVuLoI-3" target="Jt3Iy6oTeBnZVaDVuLoI-125">
          <mxGeometry relative="1" as="geometry" />
        </mxCell>
        <mxCell id="Jt3Iy6oTeBnZVaDVuLoI-128" style="edgeStyle=orthogonalEdgeStyle;rounded=0;orthogonalLoop=1;jettySize=auto;html=1;entryX=0.5;entryY=0;entryDx=0;entryDy=0;" edge="1" parent="1" source="Jt3Iy6oTeBnZVaDVuLoI-3" target="Jt3Iy6oTeBnZVaDVuLoI-127">
          <mxGeometry relative="1" as="geometry" />
        </mxCell>
        <mxCell id="Jt3Iy6oTeBnZVaDVuLoI-3" value="Image Compression" style="rounded=0;whiteSpace=wrap;html=1;" vertex="1" parent="1">
          <mxGeometry x="474" y="330" width="120" height="60" as="geometry" />
        </mxCell>
        <mxCell id="Jt3Iy6oTeBnZVaDVuLoI-142" style="edgeStyle=orthogonalEdgeStyle;rounded=0;orthogonalLoop=1;jettySize=auto;html=1;" edge="1" parent="1" source="Jt3Iy6oTeBnZVaDVuLoI-4" target="Jt3Iy6oTeBnZVaDVuLoI-129">
          <mxGeometry relative="1" as="geometry" />
        </mxCell>
        <mxCell id="Jt3Iy6oTeBnZVaDVuLoI-143" style="edgeStyle=orthogonalEdgeStyle;rounded=0;orthogonalLoop=1;jettySize=auto;html=1;" edge="1" parent="1" source="Jt3Iy6oTeBnZVaDVuLoI-4" target="Jt3Iy6oTeBnZVaDVuLoI-131">
          <mxGeometry relative="1" as="geometry" />
        </mxCell>
        <mxCell id="Jt3Iy6oTeBnZVaDVuLoI-4" value="Video Compression" style="rounded=0;whiteSpace=wrap;html=1;" vertex="1" parent="1">
          <mxGeometry x="820" y="330" width="120" height="60" as="geometry" />
        </mxCell>
        <mxCell id="Jt3Iy6oTeBnZVaDVuLoI-146" style="edgeStyle=orthogonalEdgeStyle;rounded=0;orthogonalLoop=1;jettySize=auto;html=1;" edge="1" parent="1" source="Jt3Iy6oTeBnZVaDVuLoI-5" target="Jt3Iy6oTeBnZVaDVuLoI-133">
          <mxGeometry relative="1" as="geometry" />
        </mxCell>
        <mxCell id="Jt3Iy6oTeBnZVaDVuLoI-147" style="edgeStyle=orthogonalEdgeStyle;rounded=0;orthogonalLoop=1;jettySize=auto;html=1;" edge="1" parent="1" source="Jt3Iy6oTeBnZVaDVuLoI-5" target="Jt3Iy6oTeBnZVaDVuLoI-134">
          <mxGeometry relative="1" as="geometry" />
        </mxCell>
        <mxCell id="Jt3Iy6oTeBnZVaDVuLoI-5" value="Sound Compression" style="rounded=0;whiteSpace=wrap;html=1;" vertex="1" parent="1">
          <mxGeometry x="1160" y="340" width="120" height="60" as="geometry" />
        </mxCell>
        <mxCell id="Jt3Iy6oTeBnZVaDVuLoI-15" style="edgeStyle=orthogonalEdgeStyle;rounded=0;orthogonalLoop=1;jettySize=auto;html=1;entryX=0.5;entryY=0;entryDx=0;entryDy=0;" edge="1" parent="1" source="Jt3Iy6oTeBnZVaDVuLoI-6" target="Jt3Iy6oTeBnZVaDVuLoI-3">
          <mxGeometry relative="1" as="geometry">
            <Array as="points">
              <mxPoint x="694" y="270" />
              <mxPoint x="534" y="270" />
            </Array>
          </mxGeometry>
        </mxCell>
        <mxCell id="Jt3Iy6oTeBnZVaDVuLoI-17" style="edgeStyle=orthogonalEdgeStyle;rounded=0;orthogonalLoop=1;jettySize=auto;html=1;entryX=0.5;entryY=0;entryDx=0;entryDy=0;" edge="1" parent="1" source="Jt3Iy6oTeBnZVaDVuLoI-6" target="Jt3Iy6oTeBnZVaDVuLoI-4">
          <mxGeometry relative="1" as="geometry">
            <Array as="points">
              <mxPoint x="694" y="270" />
              <mxPoint x="880" y="270" />
            </Array>
          </mxGeometry>
        </mxCell>
        <mxCell id="Jt3Iy6oTeBnZVaDVuLoI-148" style="edgeStyle=orthogonalEdgeStyle;rounded=0;orthogonalLoop=1;jettySize=auto;html=1;" edge="1" parent="1" source="Jt3Iy6oTeBnZVaDVuLoI-6" target="Jt3Iy6oTeBnZVaDVuLoI-5">
          <mxGeometry relative="1" as="geometry">
            <Array as="points">
              <mxPoint x="694" y="270" />
              <mxPoint x="1220" y="270" />
            </Array>
          </mxGeometry>
        </mxCell>
        <mxCell id="Jt3Iy6oTeBnZVaDVuLoI-6" value="Lossy Compression" style="rounded=0;whiteSpace=wrap;html=1;" vertex="1" parent="1">
          <mxGeometry x="634" y="170" width="120" height="60" as="geometry" />
        </mxCell>
        <mxCell id="Jt3Iy6oTeBnZVaDVuLoI-14" value="" style="edgeStyle=orthogonalEdgeStyle;rounded=0;orthogonalLoop=1;jettySize=auto;html=1;" edge="1" parent="1" source="Jt3Iy6oTeBnZVaDVuLoI-7" target="Jt3Iy6oTeBnZVaDVuLoI-2">
          <mxGeometry relative="1" as="geometry" />
        </mxCell>
        <mxCell id="Jt3Iy6oTeBnZVaDVuLoI-7" value="Lossless Compression" style="rounded=0;whiteSpace=wrap;html=1;" vertex="1" parent="1">
          <mxGeometry x="74" y="170" width="120" height="60" as="geometry" />
        </mxCell>
        <mxCell id="Jt3Iy6oTeBnZVaDVuLoI-18" value="Feature Map" style="text;html=1;align=center;verticalAlign=middle;whiteSpace=wrap;rounded=0;" vertex="1" parent="1">
          <mxGeometry x="384" y="10" width="60" height="30" as="geometry" />
        </mxCell>
        <mxCell id="Jt3Iy6oTeBnZVaDVuLoI-20" value="Main Flowchart" style="text;html=1;align=center;verticalAlign=middle;whiteSpace=wrap;rounded=0;" vertex="1" parent="1">
          <mxGeometry x="2260" y="20" width="60" height="30" as="geometry" />
        </mxCell>
        <mxCell id="Jt3Iy6oTeBnZVaDVuLoI-113" value="Huffman Method" style="rounded=0;whiteSpace=wrap;html=1;" vertex="1" parent="1">
          <mxGeometry x="-76" y="460" width="120" height="60" as="geometry" />
        </mxCell>
        <mxCell id="Jt3Iy6oTeBnZVaDVuLoI-115" value="..." style="rounded=0;whiteSpace=wrap;html=1;" vertex="1" parent="1">
          <mxGeometry x="74" y="460" width="120" height="60" as="geometry" />
        </mxCell>
        <mxCell id="Jt3Iy6oTeBnZVaDVuLoI-119" value="..." style="whiteSpace=wrap;html=1;rounded=0;" vertex="1" parent="1">
          <mxGeometry x="224" y="460" width="120" height="60" as="geometry" />
        </mxCell>
        <mxCell id="Jt3Iy6oTeBnZVaDVuLoI-125" value="..." style="rounded=0;whiteSpace=wrap;html=1;" vertex="1" parent="1">
          <mxGeometry x="410" y="460" width="120" height="60" as="geometry" />
        </mxCell>
        <mxCell id="Jt3Iy6oTeBnZVaDVuLoI-127" value="..." style="rounded=0;whiteSpace=wrap;html=1;" vertex="1" parent="1">
          <mxGeometry x="550" y="460" width="120" height="60" as="geometry" />
        </mxCell>
        <mxCell id="Jt3Iy6oTeBnZVaDVuLoI-129" value="..." style="rounded=0;whiteSpace=wrap;html=1;" vertex="1" parent="1">
          <mxGeometry x="750" y="460" width="120" height="60" as="geometry" />
        </mxCell>
        <mxCell id="Jt3Iy6oTeBnZVaDVuLoI-131" value="..." style="rounded=0;whiteSpace=wrap;html=1;" vertex="1" parent="1">
          <mxGeometry x="890" y="460" width="120" height="60" as="geometry" />
        </mxCell>
        <mxCell id="Jt3Iy6oTeBnZVaDVuLoI-133" value="..." style="rounded=0;whiteSpace=wrap;html=1;" vertex="1" parent="1">
          <mxGeometry x="1090" y="460" width="120" height="60" as="geometry" />
        </mxCell>
        <mxCell id="Jt3Iy6oTeBnZVaDVuLoI-134" value="..." style="rounded=0;whiteSpace=wrap;html=1;" vertex="1" parent="1">
          <mxGeometry x="1230" y="460" width="120" height="60" as="geometry" />
        </mxCell>
        <mxCell id="Jt3Iy6oTeBnZVaDVuLoI-140" value="" style="group" connectable="0" vertex="1" parent="1">
          <mxGeometry x="1580" y="60" width="1179" height="1375.06" as="geometry" />
        </mxCell>
        <mxCell id="Jt3Iy6oTeBnZVaDVuLoI-19" value="Start" style="ellipse;whiteSpace=wrap;html=1;" vertex="1" parent="Jt3Iy6oTeBnZVaDVuLoI-140">
          <mxGeometry x="649" width="120" height="80" as="geometry" />
        </mxCell>
        <mxCell id="Jt3Iy6oTeBnZVaDVuLoI-21" value="&lt;div&gt;&lt;span style=&quot;background-color: initial;&quot;&gt;filesToConvert:str = path || paths&lt;/span&gt;&lt;br&gt;&lt;/div&gt;&lt;div&gt;conversionTypes[optional]:map = {txt: Huffman, img: ... , ...}&lt;/div&gt;&lt;div&gt;outputFolder: str&lt;/div&gt;" style="shape=parallelogram;perimeter=parallelogramPerimeter;whiteSpace=wrap;html=1;fixedSize=1;" vertex="1" parent="Jt3Iy6oTeBnZVaDVuLoI-140">
          <mxGeometry x="539" y="140" width="340" height="100" as="geometry" />
        </mxCell>
        <mxCell id="Jt3Iy6oTeBnZVaDVuLoI-23" value="&lt;div&gt;Note:&lt;/div&gt;Initially arguments passed as arguments from cmd.&lt;br&gt;Later by right clicking and choosing from context menu" style="text;html=1;align=center;verticalAlign=middle;whiteSpace=wrap;rounded=0;fillColor=#fff2cc;strokeColor=#d6b656;fillStyle=solid;" vertex="1" parent="Jt3Iy6oTeBnZVaDVuLoI-140">
          <mxGeometry x="789" y="20" width="230" height="100" as="geometry" />
        </mxCell>
        <mxCell id="Jt3Iy6oTeBnZVaDVuLoI-28" value="conversionTypes is null&lt;div&gt;||&lt;/div&gt;&lt;div&gt;isIncomplete(&lt;span style=&quot;background-color: initial;&quot;&gt;conversionTypes&lt;/span&gt;&lt;span style=&quot;background-color: initial;&quot;&gt;)&lt;/span&gt;&lt;/div&gt;" style="rhombus;whiteSpace=wrap;html=1;" vertex="1" parent="Jt3Iy6oTeBnZVaDVuLoI-140">
          <mxGeometry x="594" y="320" width="230" height="150" as="geometry" />
        </mxCell>
        <mxCell id="Jt3Iy6oTeBnZVaDVuLoI-29" value="conversionTypes = fillDefaultConversionTypes()" style="whiteSpace=wrap;html=1;" vertex="1" parent="Jt3Iy6oTeBnZVaDVuLoI-140">
          <mxGeometry x="359" y="357.5" width="170" height="75" as="geometry" />
        </mxCell>
        <mxCell id="Jt3Iy6oTeBnZVaDVuLoI-137" value="" style="group" connectable="0" vertex="1" parent="Jt3Iy6oTeBnZVaDVuLoI-140">
          <mxGeometry y="635.06" width="1179" height="740" as="geometry" />
        </mxCell>
        <mxCell id="Jt3Iy6oTeBnZVaDVuLoI-87" value="We could it recursively which is super fucking cool&lt;div&gt;&amp;nbsp;or&amp;nbsp;&lt;/div&gt;&lt;div&gt;we could iterate over all paths and &#39;flatten&#39; the structure with some adnotation of the original structure such that we can restore it at the end&lt;/div&gt;" style="text;html=1;align=center;verticalAlign=middle;whiteSpace=wrap;rounded=0;fillColor=#ffe6cc;strokeColor=#d79b00;" vertex="1" parent="Jt3Iy6oTeBnZVaDVuLoI-137">
          <mxGeometry y="380" width="210" height="190" as="geometry" />
        </mxCell>
        <mxCell id="Jt3Iy6oTeBnZVaDVuLoI-76" value="" style="rounded=0;whiteSpace=wrap;html=1;" vertex="1" parent="Jt3Iy6oTeBnZVaDVuLoI-137">
          <mxGeometry x="239" width="940" height="740" as="geometry" />
        </mxCell>
        <mxCell id="Jt3Iy6oTeBnZVaDVuLoI-86" style="edgeStyle=orthogonalEdgeStyle;rounded=0;orthogonalLoop=1;jettySize=auto;html=1;exitX=0.5;exitY=0;exitDx=0;exitDy=0;" edge="1" parent="Jt3Iy6oTeBnZVaDVuLoI-137" source="Jt3Iy6oTeBnZVaDVuLoI-45">
          <mxGeometry relative="1" as="geometry">
            <mxPoint x="238" y="294.94000000000005" as="targetPoint" />
            <Array as="points">
              <mxPoint x="379" y="269.94000000000005" />
              <mxPoint x="88" y="269.94000000000005" />
              <mxPoint x="88" y="294.94000000000005" />
            </Array>
          </mxGeometry>
        </mxCell>
        <mxCell id="Jt3Iy6oTeBnZVaDVuLoI-82" value="convertCore()" style="text;html=1;align=center;verticalAlign=middle;whiteSpace=wrap;rounded=0;" vertex="1" parent="Jt3Iy6oTeBnZVaDVuLoI-137">
          <mxGeometry x="260" y="20" width="60" height="30" as="geometry" />
        </mxCell>
        <mxCell id="Jt3Iy6oTeBnZVaDVuLoI-44" value="fileType(extension)" style="rhombus;whiteSpace=wrap;html=1;" vertex="1" parent="Jt3Iy6oTeBnZVaDVuLoI-137">
          <mxGeometry x="540" y="334.94000000000005" width="130" height="80" as="geometry" />
        </mxCell>
        <mxCell id="Jt3Iy6oTeBnZVaDVuLoI-45" value="recursive call to this function passing new paths" style="whiteSpace=wrap;html=1;" vertex="1" parent="Jt3Iy6oTeBnZVaDVuLoI-137">
          <mxGeometry x="320" y="344.94000000000005" width="120" height="60" as="geometry" />
        </mxCell>
        <mxCell id="Jt3Iy6oTeBnZVaDVuLoI-106" style="edgeStyle=orthogonalEdgeStyle;rounded=0;orthogonalLoop=1;jettySize=auto;html=1;entryX=0.5;entryY=1;entryDx=0;entryDy=0;" edge="1" parent="Jt3Iy6oTeBnZVaDVuLoI-137" source="Jt3Iy6oTeBnZVaDVuLoI-48" target="Jt3Iy6oTeBnZVaDVuLoI-100">
          <mxGeometry relative="1" as="geometry">
            <Array as="points">
              <mxPoint x="705" y="650" />
              <mxPoint x="1012" y="650" />
            </Array>
          </mxGeometry>
        </mxCell>
        <mxCell id="Jt3Iy6oTeBnZVaDVuLoI-48" value="compressText()" style="whiteSpace=wrap;html=1;" vertex="1" parent="Jt3Iy6oTeBnZVaDVuLoI-137">
          <mxGeometry x="645" y="564.94" width="120" height="60" as="geometry" />
        </mxCell>
        <mxCell id="Jt3Iy6oTeBnZVaDVuLoI-104" style="edgeStyle=orthogonalEdgeStyle;rounded=0;orthogonalLoop=1;jettySize=auto;html=1;exitX=1;exitY=0.5;exitDx=0;exitDy=0;entryX=0.5;entryY=1;entryDx=0;entryDy=0;" edge="1" parent="Jt3Iy6oTeBnZVaDVuLoI-137" source="Jt3Iy6oTeBnZVaDVuLoI-53" target="Jt3Iy6oTeBnZVaDVuLoI-100">
          <mxGeometry relative="1" as="geometry" />
        </mxCell>
        <mxCell id="Jt3Iy6oTeBnZVaDVuLoI-53" value="compressVideo(path)" style="whiteSpace=wrap;html=1;" vertex="1" parent="Jt3Iy6oTeBnZVaDVuLoI-137">
          <mxGeometry x="740" y="284.94000000000005" width="120" height="60" as="geometry" />
        </mxCell>
        <mxCell id="Jt3Iy6oTeBnZVaDVuLoI-107" style="edgeStyle=orthogonalEdgeStyle;rounded=0;orthogonalLoop=1;jettySize=auto;html=1;entryX=0.5;entryY=1;entryDx=0;entryDy=0;exitX=0.5;exitY=1;exitDx=0;exitDy=0;" edge="1" parent="Jt3Iy6oTeBnZVaDVuLoI-137" source="Jt3Iy6oTeBnZVaDVuLoI-57" target="Jt3Iy6oTeBnZVaDVuLoI-100">
          <mxGeometry relative="1" as="geometry">
            <Array as="points">
              <mxPoint x="505" y="650" />
              <mxPoint x="1012" y="650" />
            </Array>
          </mxGeometry>
        </mxCell>
        <mxCell id="Jt3Iy6oTeBnZVaDVuLoI-57" value="compressSound()" style="rounded=0;whiteSpace=wrap;html=1;" vertex="1" parent="Jt3Iy6oTeBnZVaDVuLoI-137">
          <mxGeometry x="445" y="564.94" width="120" height="60" as="geometry" />
        </mxCell>
        <mxCell id="Jt3Iy6oTeBnZVaDVuLoI-105" style="edgeStyle=orthogonalEdgeStyle;rounded=0;orthogonalLoop=1;jettySize=auto;html=1;exitX=1;exitY=0.5;exitDx=0;exitDy=0;entryX=0.5;entryY=1;entryDx=0;entryDy=0;" edge="1" parent="Jt3Iy6oTeBnZVaDVuLoI-137" source="Jt3Iy6oTeBnZVaDVuLoI-64" target="Jt3Iy6oTeBnZVaDVuLoI-100">
          <mxGeometry relative="1" as="geometry" />
        </mxCell>
        <mxCell id="Jt3Iy6oTeBnZVaDVuLoI-64" value="compressImage(path)" style="rounded=0;whiteSpace=wrap;html=1;" vertex="1" parent="Jt3Iy6oTeBnZVaDVuLoI-137">
          <mxGeometry x="740" y="404.94000000000005" width="120" height="60" as="geometry" />
        </mxCell>
        <mxCell id="Jt3Iy6oTeBnZVaDVuLoI-153" style="edgeStyle=orthogonalEdgeStyle;rounded=0;orthogonalLoop=1;jettySize=auto;html=1;exitX=0.5;exitY=1;exitDx=0;exitDy=0;entryX=0.5;entryY=0;entryDx=0;entryDy=0;" edge="1" parent="Jt3Iy6oTeBnZVaDVuLoI-137" source="Jt3Iy6oTeBnZVaDVuLoI-67" target="Jt3Iy6oTeBnZVaDVuLoI-44">
          <mxGeometry relative="1" as="geometry" />
        </mxCell>
        <mxCell id="Jt3Iy6oTeBnZVaDVuLoI-67" value="i = 0&lt;div&gt;path = filesToConvert[ i ]&lt;br&gt;&lt;div&gt;extension = getExtension(path)&lt;/div&gt;&lt;/div&gt;" style="rounded=0;whiteSpace=wrap;html=1;" vertex="1" parent="Jt3Iy6oTeBnZVaDVuLoI-137">
          <mxGeometry x="511" y="174.94000000000005" width="190" height="60" as="geometry" />
        </mxCell>
        <mxCell id="Jt3Iy6oTeBnZVaDVuLoI-83" value="Start" style="ellipse;whiteSpace=wrap;html=1;" vertex="1" parent="Jt3Iy6oTeBnZVaDVuLoI-137">
          <mxGeometry x="546" y="44.940000000000055" width="120" height="80" as="geometry" />
        </mxCell>
        <mxCell id="Jt3Iy6oTeBnZVaDVuLoI-46" value="" style="edgeStyle=orthogonalEdgeStyle;rounded=0;orthogonalLoop=1;jettySize=auto;html=1;" edge="1" parent="Jt3Iy6oTeBnZVaDVuLoI-137" source="Jt3Iy6oTeBnZVaDVuLoI-44" target="Jt3Iy6oTeBnZVaDVuLoI-45">
          <mxGeometry relative="1" as="geometry" />
        </mxCell>
        <mxCell id="Jt3Iy6oTeBnZVaDVuLoI-47" value="dir" style="edgeLabel;html=1;align=center;verticalAlign=middle;resizable=0;points=[];" connectable="0" vertex="1" parent="Jt3Iy6oTeBnZVaDVuLoI-46">
          <mxGeometry x="-0.0333" y="-4" relative="1" as="geometry">
            <mxPoint as="offset" />
          </mxGeometry>
        </mxCell>
        <mxCell id="Jt3Iy6oTeBnZVaDVuLoI-72" style="edgeStyle=orthogonalEdgeStyle;rounded=0;orthogonalLoop=1;jettySize=auto;html=1;entryX=0.5;entryY=0;entryDx=0;entryDy=0;" edge="1" parent="Jt3Iy6oTeBnZVaDVuLoI-137" source="Jt3Iy6oTeBnZVaDVuLoI-44" target="Jt3Iy6oTeBnZVaDVuLoI-48">
          <mxGeometry relative="1" as="geometry" />
        </mxCell>
        <mxCell id="Jt3Iy6oTeBnZVaDVuLoI-73" value="text" style="edgeLabel;html=1;align=center;verticalAlign=middle;resizable=0;points=[];" connectable="0" vertex="1" parent="Jt3Iy6oTeBnZVaDVuLoI-72">
          <mxGeometry x="-0.2509" y="-2" relative="1" as="geometry">
            <mxPoint x="27" as="offset" />
          </mxGeometry>
        </mxCell>
        <mxCell id="Jt3Iy6oTeBnZVaDVuLoI-54" value="" style="edgeStyle=orthogonalEdgeStyle;rounded=0;orthogonalLoop=1;jettySize=auto;html=1;" edge="1" parent="Jt3Iy6oTeBnZVaDVuLoI-137" source="Jt3Iy6oTeBnZVaDVuLoI-44" target="Jt3Iy6oTeBnZVaDVuLoI-53">
          <mxGeometry relative="1" as="geometry" />
        </mxCell>
        <mxCell id="Jt3Iy6oTeBnZVaDVuLoI-55" value="video" style="edgeLabel;html=1;align=center;verticalAlign=middle;resizable=0;points=[];" connectable="0" vertex="1" parent="Jt3Iy6oTeBnZVaDVuLoI-54">
          <mxGeometry x="-0.1333" y="-4" relative="1" as="geometry">
            <mxPoint as="offset" />
          </mxGeometry>
        </mxCell>
        <mxCell id="Jt3Iy6oTeBnZVaDVuLoI-74" style="edgeStyle=orthogonalEdgeStyle;rounded=0;orthogonalLoop=1;jettySize=auto;html=1;entryX=0.5;entryY=0;entryDx=0;entryDy=0;" edge="1" parent="Jt3Iy6oTeBnZVaDVuLoI-137" source="Jt3Iy6oTeBnZVaDVuLoI-44" target="Jt3Iy6oTeBnZVaDVuLoI-57">
          <mxGeometry relative="1" as="geometry" />
        </mxCell>
        <mxCell id="Jt3Iy6oTeBnZVaDVuLoI-75" value="sound" style="edgeLabel;html=1;align=center;verticalAlign=middle;resizable=0;points=[];" connectable="0" vertex="1" parent="Jt3Iy6oTeBnZVaDVuLoI-74">
          <mxGeometry x="0.0844" y="2" relative="1" as="geometry">
            <mxPoint as="offset" />
          </mxGeometry>
        </mxCell>
        <mxCell id="Jt3Iy6oTeBnZVaDVuLoI-65" style="edgeStyle=orthogonalEdgeStyle;rounded=0;orthogonalLoop=1;jettySize=auto;html=1;entryX=0;entryY=0.5;entryDx=0;entryDy=0;" edge="1" parent="Jt3Iy6oTeBnZVaDVuLoI-137" source="Jt3Iy6oTeBnZVaDVuLoI-44" target="Jt3Iy6oTeBnZVaDVuLoI-64">
          <mxGeometry relative="1" as="geometry" />
        </mxCell>
        <mxCell id="Jt3Iy6oTeBnZVaDVuLoI-66" value="img" style="edgeLabel;html=1;align=center;verticalAlign=middle;resizable=0;points=[];" connectable="0" vertex="1" parent="Jt3Iy6oTeBnZVaDVuLoI-65">
          <mxGeometry x="0.0769" y="-2" relative="1" as="geometry">
            <mxPoint as="offset" />
          </mxGeometry>
        </mxCell>
        <mxCell id="Jt3Iy6oTeBnZVaDVuLoI-84" style="edgeStyle=orthogonalEdgeStyle;rounded=0;orthogonalLoop=1;jettySize=auto;html=1;entryX=0.5;entryY=0;entryDx=0;entryDy=0;" edge="1" parent="Jt3Iy6oTeBnZVaDVuLoI-137" source="Jt3Iy6oTeBnZVaDVuLoI-83" target="Jt3Iy6oTeBnZVaDVuLoI-67">
          <mxGeometry relative="1" as="geometry" />
        </mxCell>
        <mxCell id="Jt3Iy6oTeBnZVaDVuLoI-99" style="edgeStyle=orthogonalEdgeStyle;rounded=0;orthogonalLoop=1;jettySize=auto;html=1;entryX=0.5;entryY=1;entryDx=0;entryDy=0;" edge="1" parent="Jt3Iy6oTeBnZVaDVuLoI-137" source="Jt3Iy6oTeBnZVaDVuLoI-96" target="Jt3Iy6oTeBnZVaDVuLoI-98">
          <mxGeometry relative="1" as="geometry" />
        </mxCell>
        <mxCell id="Jt3Iy6oTeBnZVaDVuLoI-111" style="edgeStyle=orthogonalEdgeStyle;rounded=0;orthogonalLoop=1;jettySize=auto;html=1;entryX=1;entryY=0.5;entryDx=0;entryDy=0;" edge="1" parent="Jt3Iy6oTeBnZVaDVuLoI-137" source="Jt3Iy6oTeBnZVaDVuLoI-96" target="Jt3Iy6oTeBnZVaDVuLoI-67">
          <mxGeometry relative="1" as="geometry" />
        </mxCell>
        <mxCell id="Jt3Iy6oTeBnZVaDVuLoI-96" value="i &amp;gt; filesToConvert.length" style="rhombus;whiteSpace=wrap;html=1;" vertex="1" parent="Jt3Iy6oTeBnZVaDVuLoI-137">
          <mxGeometry x="927" y="164.94000000000005" width="170" height="80" as="geometry" />
        </mxCell>
        <mxCell id="Jt3Iy6oTeBnZVaDVuLoI-98" value="End" style="ellipse;whiteSpace=wrap;html=1;" vertex="1" parent="Jt3Iy6oTeBnZVaDVuLoI-137">
          <mxGeometry x="952" y="44.940000000000055" width="120" height="80" as="geometry" />
        </mxCell>
        <mxCell id="Jt3Iy6oTeBnZVaDVuLoI-112" style="edgeStyle=orthogonalEdgeStyle;rounded=0;orthogonalLoop=1;jettySize=auto;html=1;entryX=0.5;entryY=1;entryDx=0;entryDy=0;" edge="1" parent="Jt3Iy6oTeBnZVaDVuLoI-137" source="Jt3Iy6oTeBnZVaDVuLoI-100" target="Jt3Iy6oTeBnZVaDVuLoI-96">
          <mxGeometry relative="1" as="geometry" />
        </mxCell>
        <mxCell id="Jt3Iy6oTeBnZVaDVuLoI-100" value="i++" style="rounded=0;whiteSpace=wrap;html=1;" vertex="1" parent="Jt3Iy6oTeBnZVaDVuLoI-137">
          <mxGeometry x="952" y="284.94000000000005" width="120" height="60" as="geometry" />
        </mxCell>
        <mxCell id="Jt3Iy6oTeBnZVaDVuLoI-22" style="edgeStyle=orthogonalEdgeStyle;rounded=0;orthogonalLoop=1;jettySize=auto;html=1;entryX=0.5;entryY=0;entryDx=0;entryDy=0;" edge="1" parent="Jt3Iy6oTeBnZVaDVuLoI-140" source="Jt3Iy6oTeBnZVaDVuLoI-19" target="Jt3Iy6oTeBnZVaDVuLoI-21">
          <mxGeometry relative="1" as="geometry" />
        </mxCell>
        <mxCell id="Jt3Iy6oTeBnZVaDVuLoI-139" style="edgeStyle=orthogonalEdgeStyle;rounded=0;orthogonalLoop=1;jettySize=auto;html=1;" edge="1" parent="Jt3Iy6oTeBnZVaDVuLoI-140" source="Jt3Iy6oTeBnZVaDVuLoI-21" target="Jt3Iy6oTeBnZVaDVuLoI-28">
          <mxGeometry relative="1" as="geometry" />
        </mxCell>
        <mxCell id="Jt3Iy6oTeBnZVaDVuLoI-30" value="" style="edgeStyle=orthogonalEdgeStyle;rounded=0;orthogonalLoop=1;jettySize=auto;html=1;" edge="1" parent="Jt3Iy6oTeBnZVaDVuLoI-140" source="Jt3Iy6oTeBnZVaDVuLoI-28" target="Jt3Iy6oTeBnZVaDVuLoI-29">
          <mxGeometry relative="1" as="geometry" />
        </mxCell>
        <mxCell id="Jt3Iy6oTeBnZVaDVuLoI-31" value="true" style="edgeLabel;html=1;align=center;verticalAlign=middle;resizable=0;points=[];" connectable="0" vertex="1" parent="Jt3Iy6oTeBnZVaDVuLoI-30">
          <mxGeometry x="0.175" y="-2" relative="1" as="geometry">
            <mxPoint as="offset" />
          </mxGeometry>
        </mxCell>
        <mxCell id="Jt3Iy6oTeBnZVaDVuLoI-109" style="edgeStyle=orthogonalEdgeStyle;rounded=0;orthogonalLoop=1;jettySize=auto;html=1;entryX=0.5;entryY=0;entryDx=0;entryDy=0;" edge="1" parent="Jt3Iy6oTeBnZVaDVuLoI-140" source="Jt3Iy6oTeBnZVaDVuLoI-29" target="Jt3Iy6oTeBnZVaDVuLoI-76">
          <mxGeometry relative="1" as="geometry" />
        </mxCell>
        <mxCell id="Jt3Iy6oTeBnZVaDVuLoI-110" style="edgeStyle=orthogonalEdgeStyle;rounded=0;orthogonalLoop=1;jettySize=auto;html=1;entryX=0.5;entryY=0;entryDx=0;entryDy=0;" edge="1" parent="Jt3Iy6oTeBnZVaDVuLoI-140" source="Jt3Iy6oTeBnZVaDVuLoI-28" target="Jt3Iy6oTeBnZVaDVuLoI-76">
          <mxGeometry relative="1" as="geometry" />
        </mxCell>
        <mxCell id="Jt3Iy6oTeBnZVaDVuLoI-155" value="decomression :))&lt;div&gt;&lt;/div&gt;" style="text;html=1;align=center;verticalAlign=middle;whiteSpace=wrap;rounded=0;fillColor=#fff2cc;strokeColor=#d6b656;fillStyle=solid;" vertex="1" parent="Jt3Iy6oTeBnZVaDVuLoI-140">
          <mxGeometry x="910" y="250" width="230" height="100" as="geometry" />
        </mxCell>
        <mxCell id="Jt3Iy6oTeBnZVaDVuLoI-149" value="Dave the Actor&lt;br&gt;Role: Mental support&lt;br&gt;Position: Official mascot of SupaZippa" style="shape=umlActor;verticalLabelPosition=bottom;verticalAlign=top;html=1;outlineConnect=0;" vertex="1" parent="1">
          <mxGeometry x="1440" y="110" width="110" height="210" as="geometry" />
        </mxCell>
      </root>
    </mxGraphModel>
  </diagram>
</mxfile>
